<?xml version="1.0" encoding="utf-8"?>
<mxfile host="app.diagrams.net" agent="Claude Code - Professional Edition" version="22.1.0" type="device">
  <diagram name="Mapa Frontend" id="frontend-map-v2">
    <mxGraphModel dx="2400" dy="1600" grid="1" gridSize="10" guides="1" tooltips="1" connect="1" arrows="1" fold="1" page="1" pageScale="1" pageWidth="3200" pageHeight="2200">
      <root>
        <mxCell id="0"/>
        <mxCell id="1" parent="0"/>
        <mxCell id="title" value="🗺️ Mapa de Navegação - Frontend Pro Team Care" style="text;html=1;strokeColor=none;fillColor=none;align=center;verticalAlign=middle;whiteSpace=wrap;rounded=0;fontSize=24;fontStyle=1;fontColor=#1565C0;" vertex="1" parent="1">
          <mxGeometry x="50" y="20" width="3100" height="60" as="geometry"/>
        </mxCell>
        <mxCell id="subtitle" value="React 18 + TypeScript + TailwindCSS + React Router v6 | 27 Páginas | 50+ Componentes" style="text;html=1;strokeColor=#666666;fillColor=#f5f5f5;align=center;verticalAlign=middle;whiteSpace=wrap;rounded=1;fontSize=13;fontStyle=1;shadow=1;" vertex="1" parent="1">
          <mxGeometry x="50" y="90" width="3100" height="40" as="geometry"/>
        </mxCell>
        <mxCell id="section_routes" value="🛣️ ESTRUTURA DE ROTAS E NAVEGAÇÃO" style="rounded=1;whiteSpace=wrap;html=1;fillColor=#E3F2FD;strokeColor=#666666;strokeWidth=2;fontSize=14;fontStyle=1;fontColor=#1a1a1a;align=center;verticalAlign=middle;shadow=1;" vertex="1" parent="1">
          <mxGeometry x="50" y="160" width="3100" height="50" as="geometry"/>
        </mxCell>
        <mxCell id="card_app" value="&lt;div style=&quot;padding:10px;&quot;&gt;
&lt;div style=&quot;display:flex;align-items:center;margin-bottom:8px;&quot;&gt;
&lt;span style=&quot;font-size:24px;margin-right:8px;&quot;&gt;⚙️&lt;/span&gt;
&lt;span style=&quot;font-size:14px;font-weight:bold;color:#1a1a1a;&quot;&gt;App.jsx (Raiz)&lt;/span&gt;
&lt;/div&gt;
&lt;hr style=&quot;border:none;border-top:1px solid #ccc;margin:8px 0;&quot;&gt;
&lt;div style=&quot;font-size:11px;line-height:1.6;color:#333;&quot;&gt;
• &lt;b&gt;Router:&lt;/b&gt; BrowserRouter (React Router v6)&lt;br/&gt;• &lt;b&gt;Contexts:&lt;/b&gt; AuthContext, ThemeContext&lt;br/&gt;• &lt;b&gt;Rotas públicas:&lt;/b&gt; /login, /activate/:token&lt;br/&gt;• &lt;b&gt;Rotas protegidas:&lt;/b&gt; /admin/* (ProtectedRoute)&lt;br/&gt;• &lt;b&gt;Middlewares:&lt;/b&gt; JWT validation, Permission checks&lt;br/&gt;&lt;/div&gt;&lt;/div&gt;" style="rounded=1;whiteSpace=wrap;html=1;fillColor=#FFF9C4;strokeColor=#F9A825;strokeWidth=2;shadow=1;align=left;verticalAlign=top;spacingLeft=5;spacingTop=5;" vertex="1" parent="1">
          <mxGeometry x="70" y="230" width="600" height="180" as="geometry"/>
        </mxCell>
        <mxCell id="card_public_routes" value="&lt;div style=&quot;padding:10px;&quot;&gt;
&lt;div style=&quot;display:flex;align-items:center;margin-bottom:8px;&quot;&gt;
&lt;span style=&quot;font-size:24px;margin-right:8px;&quot;&gt;🔓&lt;/span&gt;
&lt;span style=&quot;font-size:14px;font-weight:bold;color:#1a1a1a;&quot;&gt;Rotas Públicas&lt;/span&gt;
&lt;/div&gt;
&lt;hr style=&quot;border:none;border-top:1px solid #ccc;margin:8px 0;&quot;&gt;
&lt;div style=&quot;font-size:11px;line-height:1.6;color:#333;&quot;&gt;
• &lt;b&gt;/login&lt;/b&gt; → LoginPage (Autenticação JWT)&lt;br/&gt;• &lt;b&gt;/activate/:token&lt;/b&gt; → ActivationPage&lt;br/&gt;• &lt;b&gt;Redirect:&lt;/b&gt; sessionStorage.redirectAfterLogin&lt;br/&gt;• &lt;b&gt;Validação:&lt;/b&gt; Email + Password&lt;br/&gt;• &lt;b&gt;Features:&lt;/b&gt; &quot;Lembrar-me&quot;, &quot;Esqueci senha&quot;&lt;br/&gt;&lt;/div&gt;&lt;/div&gt;" style="rounded=1;whiteSpace=wrap;html=1;fillColor=#FFEBEE;strokeColor=#E53935;strokeWidth=2;shadow=1;align=left;verticalAlign=top;spacingLeft=5;spacingTop=5;" vertex="1" parent="1">
          <mxGeometry x="720" y="230" width="600" height="180" as="geometry"/>
        </mxCell>
        <mxCell id="card_admin_layout" value="&lt;div style=&quot;padding:10px;&quot;&gt;
&lt;div style=&quot;display:flex;align-items:center;margin-bottom:8px;&quot;&gt;
&lt;span style=&quot;font-size:24px;margin-right:8px;&quot;&gt;🏛️&lt;/span&gt;
&lt;span style=&quot;font-size:14px;font-weight:bold;color:#1a1a1a;&quot;&gt;AdminLayout (Protegido)&lt;/span&gt;
&lt;/div&gt;
&lt;hr style=&quot;border:none;border-top:1px solid #ccc;margin:8px 0;&quot;&gt;
&lt;div style=&quot;font-size:11px;line-height:1.6;color:#333;&quot;&gt;
• &lt;b&gt;Wrapper:&lt;/b&gt; ProtectedRoute (JWT required)&lt;br/&gt;• &lt;b&gt;Componentes fixos:&lt;/b&gt; Header, Sidebar, Footer, Breadcrumb&lt;br/&gt;• &lt;b&gt;Outlet:&lt;/b&gt; React Router v6 (renderiza páginas filhas)&lt;br/&gt;• &lt;b&gt;Sidebar dinâmico:&lt;/b&gt; Menu baseado em permissões&lt;br/&gt;• &lt;b&gt;Features:&lt;/b&gt; User menu, Logout, Dark mode toggle&lt;br/&gt;&lt;/div&gt;&lt;/div&gt;" style="rounded=1;whiteSpace=wrap;html=1;fillColor=#E8F5E9;strokeColor=#43A047;strokeWidth=2;shadow=1;align=left;verticalAlign=top;spacingLeft=5;spacingTop=5;" vertex="1" parent="1">
          <mxGeometry x="1370" y="230" width="600" height="180" as="geometry"/>
        </mxCell>
        <mxCell id="card_layout_components" value="&lt;div style=&quot;padding:10px;&quot;&gt;
&lt;div style=&quot;display:flex;align-items:center;margin-bottom:8px;&quot;&gt;
&lt;span style=&quot;font-size:24px;margin-right:8px;&quot;&gt;🎨&lt;/span&gt;
&lt;span style=&quot;font-size:14px;font-weight:bold;color:#1a1a1a;&quot;&gt;Componentes de Layout&lt;/span&gt;
&lt;/div&gt;
&lt;hr style=&quot;border:none;border-top:1px solid #ccc;margin:8px 0;&quot;&gt;
&lt;div style=&quot;font-size:11px;line-height:1.6;color:#333;&quot;&gt;
• &lt;b&gt;Header:&lt;/b&gt; Logo + User Menu + Search (global)&lt;br/&gt;• &lt;b&gt;Sidebar:&lt;/b&gt; Menu dinâmico (permissions-based)&lt;br/&gt;• &lt;b&gt;BreadcrumbBar:&lt;/b&gt; Navegação hierárquica&lt;br/&gt;• &lt;b&gt;Footer:&lt;/b&gt; Versão + Links úteis&lt;br/&gt;• &lt;b&gt;Theme:&lt;/b&gt; Light/Dark mode (ThemeContext)&lt;br/&gt;&lt;/div&gt;&lt;/div&gt;" style="rounded=1;whiteSpace=wrap;html=1;fillColor=#F3E5F5;strokeColor=#8E24AA;strokeWidth=2;shadow=1;align=left;verticalAlign=top;spacingLeft=5;spacingTop=5;" vertex="1" parent="1">
          <mxGeometry x="2020" y="230" width="600" height="180" as="geometry"/>
        </mxCell>
        <mxCell id="section_pages" value="📄 MÓDULOS E PÁGINAS (27 PÁGINAS)" style="rounded=1;whiteSpace=wrap;html=1;fillColor=#FFF3E0;strokeColor=#666666;strokeWidth=2;fontSize=14;fontStyle=1;fontColor=#1a1a1a;align=center;verticalAlign=middle;shadow=1;" vertex="1" parent="1">
          <mxGeometry x="50" y="450" width="3100" height="50" as="geometry"/>
        </mxCell>
        <mxCell id="module_dashboard" value="&lt;div style=&quot;padding:10px;&quot;&gt;
&lt;div style=&quot;display:flex;align-items:center;margin-bottom:8px;&quot;&gt;
&lt;span style=&quot;font-size:24px;margin-right:8px;&quot;&gt;📊&lt;/span&gt;
&lt;span style=&quot;font-size:14px;font-weight:bold;color:#1a1a1a;&quot;&gt;📊 Dashboard&lt;/span&gt;
&lt;/div&gt;
&lt;hr style=&quot;border:none;border-top:1px solid #ccc;margin:8px 0;&quot;&gt;
&lt;div style=&quot;font-size:11px;line-height:1.6;color:#333;&quot;&gt;
• &lt;b&gt;/admin&lt;/b&gt; → DashboardPage&lt;br/&gt;• • Cards de métricas principais&lt;br/&gt;• • Gráficos de KPIs (Chart.js)&lt;br/&gt;• • Tabela de contratos ativos&lt;br/&gt;• • Alertas e notificações&lt;br/&gt;&lt;/div&gt;&lt;/div&gt;" style="rounded=1;whiteSpace=wrap;html=1;fillColor=#BBDEFB;strokeColor=#1976D2;strokeWidth=2;shadow=1;align=left;verticalAlign=top;spacingLeft=5;spacingTop=5;" vertex="1" parent="1">
          <mxGeometry x="70" y="520" width="480" height="160" as="geometry"/>
        </mxCell>
        <mxCell id="module_cadastros" value="&lt;div style=&quot;padding:10px;&quot;&gt;
&lt;div style=&quot;display:flex;align-items:center;margin-bottom:8px;&quot;&gt;
&lt;span style=&quot;font-size:24px;margin-right:8px;&quot;&gt;📝&lt;/span&gt;
&lt;span style=&quot;font-size:14px;font-weight:bold;color:#1a1a1a;&quot;&gt;📝 Cadastros Base&lt;/span&gt;
&lt;/div&gt;
&lt;hr style=&quot;border:none;border-top:1px solid #ccc;margin:8px 0;&quot;&gt;
&lt;div style=&quot;font-size:11px;line-height:1.6;color:#333;&quot;&gt;
• &lt;b&gt;/admin/empresas&lt;/b&gt; → EmpresasPage (Companies)&lt;br/&gt;• &lt;b&gt;/admin/estabelecimentos&lt;/b&gt; → EstablishmentsPage&lt;br/&gt;• &lt;b&gt;/admin/clientes&lt;/b&gt; → ClientsPage&lt;br/&gt;• &lt;b&gt;/admin/profissionais&lt;/b&gt; → ProfessionalsPage&lt;br/&gt;• &lt;b&gt;/admin/pacientes&lt;/b&gt; → PatientsPage&lt;br/&gt;• &lt;b&gt;/admin/usuarios&lt;/b&gt; → UsersPage&lt;br/&gt;• &lt;b&gt;/admin/perfis&lt;/b&gt; → RolesPage&lt;br/&gt;• &lt;b&gt;/admin/menus&lt;/b&gt; → MenusPage&lt;br/&gt;&lt;/div&gt;&lt;/div&gt;" style="rounded=1;whiteSpace=wrap;html=1;fillColor=#C8E6C9;strokeColor=#43A047;strokeWidth=2;shadow=1;align=left;verticalAlign=top;spacingLeft=5;spacingTop=5;" vertex="1" parent="1">
          <mxGeometry x="580" y="520" width="480" height="160" as="geometry"/>
        </mxCell>
        <mxCell id="module_homecare" value="&lt;div style=&quot;padding:10px;&quot;&gt;
&lt;div style=&quot;display:flex;align-items:center;margin-bottom:8px;&quot;&gt;
&lt;span style=&quot;font-size:24px;margin-right:8px;&quot;&gt;🏥&lt;/span&gt;
&lt;span style=&quot;font-size:14px;font-weight:bold;color:#1a1a1a;&quot;&gt;🏥 Home Care&lt;/span&gt;
&lt;/div&gt;
&lt;hr style=&quot;border:none;border-top:1px solid #ccc;margin:8px 0;&quot;&gt;
&lt;div style=&quot;font-size:11px;line-height:1.6;color:#333;&quot;&gt;
• &lt;b&gt;/admin/contratos&lt;/b&gt; → ContractsPage&lt;br/&gt;• &lt;b&gt;/admin/contratos/dashboard&lt;/b&gt; → ContractDashboard&lt;br/&gt;• &lt;b&gt;/admin/vidas&lt;/b&gt; → LivesPage (Contract Lives)&lt;br/&gt;• &lt;b&gt;/admin/servicos&lt;/b&gt; → ServicesPage (Catalog)&lt;br/&gt;• &lt;b&gt;/admin/autorizacoes&lt;/b&gt; → MedicalAuthorizationsPage&lt;br/&gt;• &lt;b&gt;/admin/relatorios&lt;/b&gt; → ReportsPage&lt;br/&gt;&lt;/div&gt;&lt;/div&gt;" style="rounded=1;whiteSpace=wrap;html=1;fillColor=#E1BEE7;strokeColor=#8E24AA;strokeWidth=2;shadow=1;align=left;verticalAlign=top;spacingLeft=5;spacingTop=5;" vertex="1" parent="1">
          <mxGeometry x="1090" y="520" width="480" height="160" as="geometry"/>
        </mxCell>
        <mxCell id="module_financeiro" value="&lt;div style=&quot;padding:10px;&quot;&gt;
&lt;div style=&quot;display:flex;align-items:center;margin-bottom:8px;&quot;&gt;
&lt;span style=&quot;font-size:24px;margin-right:8px;&quot;&gt;💰&lt;/span&gt;
&lt;span style=&quot;font-size:14px;font-weight:bold;color:#1a1a1a;&quot;&gt;💰 Financeiro&lt;/span&gt;
&lt;/div&gt;
&lt;hr style=&quot;border:none;border-top:1px solid #ccc;margin:8px 0;&quot;&gt;
&lt;div style=&quot;font-size:11px;line-height:1.6;color:#333;&quot;&gt;
• &lt;b&gt;/admin/faturamento/dashboard&lt;/b&gt; → BillingDashboard&lt;br/&gt;• &lt;b&gt;/admin/faturamento/faturas&lt;/b&gt; → InvoicesPage&lt;br/&gt;• &lt;b&gt;/admin/faturamento/b2b&lt;/b&gt; → B2BBillingPage&lt;br/&gt;• &lt;b&gt;/admin/faturamento/planos&lt;/b&gt; → SubscriptionPlansPage&lt;br/&gt;• &lt;b&gt;Integrações:&lt;/b&gt; PagBank (webhook)&lt;br/&gt;• &lt;b&gt;Features:&lt;/b&gt; Billing automático, Limits control&lt;br/&gt;&lt;/div&gt;&lt;/div&gt;" style="rounded=1;whiteSpace=wrap;html=1;fillColor=#FFE0B2;strokeColor=#F57C00;strokeWidth=2;shadow=1;align=left;verticalAlign=top;spacingLeft=5;spacingTop=5;" vertex="1" parent="1">
          <mxGeometry x="1600" y="520" width="480" height="160" as="geometry"/>
        </mxCell>
        <mxCell id="module_config" value="&lt;div style=&quot;padding:10px;&quot;&gt;
&lt;div style=&quot;display:flex;align-items:center;margin-bottom:8px;&quot;&gt;
&lt;span style=&quot;font-size:24px;margin-right:8px;&quot;&gt;⚙️&lt;/span&gt;
&lt;span style=&quot;font-size:14px;font-weight:bold;color:#1a1a1a;&quot;&gt;⚙️ Configurações&lt;/span&gt;
&lt;/div&gt;
&lt;hr style=&quot;border:none;border-top:1px solid #ccc;margin:8px 0;&quot;&gt;
&lt;div style=&quot;font-size:11px;line-height:1.6;color:#333;&quot;&gt;
• &lt;b&gt;/admin/configuracoes&lt;/b&gt; → SettingsPage&lt;br/&gt;• &lt;b&gt;/admin/notificacoes&lt;/b&gt; → NotificationsPage&lt;br/&gt;• &lt;b&gt;/admin/perfil&lt;/b&gt; → ProfilePage&lt;br/&gt;• • Preferências do usuário&lt;br/&gt;• • Configurações de sistema&lt;br/&gt;• • Logs de auditoria&lt;br/&gt;&lt;/div&gt;&lt;/div&gt;" style="rounded=1;whiteSpace=wrap;html=1;fillColor=#F8BBD0;strokeColor=#E91E63;strokeWidth=2;shadow=1;align=left;verticalAlign=top;spacingLeft=5;spacingTop=5;" vertex="1" parent="1">
          <mxGeometry x="2110" y="520" width="480" height="160" as="geometry"/>
        </mxCell>
        <mxCell id="section_components" value="🧩 COMPONENTES REUTILIZÁVEIS (50+ COMPONENTES)" style="rounded=1;whiteSpace=wrap;html=1;fillColor=#E8F5E9;strokeColor=#666666;strokeWidth=2;fontSize=14;fontStyle=1;fontColor=#1a1a1a;align=center;verticalAlign=middle;shadow=1;" vertex="1" parent="1">
          <mxGeometry x="50" y="720" width="3100" height="50" as="geometry"/>
        </mxCell>
        <mxCell id="components_forms" value="&lt;div style=&quot;padding:10px;&quot;&gt;
&lt;div style=&quot;display:flex;align-items:center;margin-bottom:8px;&quot;&gt;
&lt;span style=&quot;font-size:24px;margin-right:8px;&quot;&gt;📝&lt;/span&gt;
&lt;span style=&quot;font-size:14px;font-weight:bold;color:#1a1a1a;&quot;&gt;📝 Forms&lt;/span&gt;
&lt;/div&gt;
&lt;hr style=&quot;border:none;border-top:1px solid #ccc;margin:8px 0;&quot;&gt;
&lt;div style=&quot;font-size:11px;line-height:1.6;color:#333;&quot;&gt;
• CompanyForm (multi-step, validation)&lt;br/&gt;• EstablishmentForm (sections)&lt;br/&gt;• ClientForm (sections + address)&lt;br/&gt;• ContractForm (lives management)&lt;br/&gt;• UserForm (roles + permissions)&lt;br/&gt;• ProfessionalForm&lt;br/&gt;• PatientForm&lt;br/&gt;• &lt;b&gt;Features:&lt;/b&gt; Validation, Auto-save, Error handling&lt;br/&gt;&lt;/div&gt;&lt;/div&gt;" style="rounded=1;whiteSpace=wrap;html=1;fillColor=#E1F5FE;strokeColor=#0288D1;strokeWidth=2;shadow=1;align=left;verticalAlign=top;spacingLeft=5;spacingTop=5;" vertex="1" parent="1">
          <mxGeometry x="70" y="790" width="450" height="240" as="geometry"/>
        </mxCell>
        <mxCell id="components_views" value="&lt;div style=&quot;padding:10px;&quot;&gt;
&lt;div style=&quot;display:flex;align-items:center;margin-bottom:8px;&quot;&gt;
&lt;span style=&quot;font-size:24px;margin-right:8px;&quot;&gt;👁️&lt;/span&gt;
&lt;span style=&quot;font-size:14px;font-weight:bold;color:#1a1a1a;&quot;&gt;👁️ Views/Details&lt;/span&gt;
&lt;/div&gt;
&lt;hr style=&quot;border:none;border-top:1px solid #ccc;margin:8px 0;&quot;&gt;
&lt;div style=&quot;font-size:11px;line-height:1.6;color:#333;&quot;&gt;
• CompanyDetails (padrão EntityDetails)&lt;br/&gt;• EstablishmentDetails&lt;br/&gt;• ClientDetails&lt;br/&gt;• ContractDetails (tabs)&lt;br/&gt;• UserDetails&lt;br/&gt;• ProfessionalDetails&lt;br/&gt;• PatientDetails&lt;br/&gt;• &lt;b&gt;Pattern:&lt;/b&gt; EntityDetailsLayout (reusable)&lt;br/&gt;&lt;/div&gt;&lt;/div&gt;" style="rounded=1;whiteSpace=wrap;html=1;fillColor=#F3E5F5;strokeColor=#7B1FA2;strokeWidth=2;shadow=1;align=left;verticalAlign=top;spacingLeft=5;spacingTop=5;" vertex="1" parent="1">
          <mxGeometry x="550" y="790" width="450" height="240" as="geometry"/>
        </mxCell>
        <mxCell id="components_ui" value="&lt;div style=&quot;padding:10px;&quot;&gt;
&lt;div style=&quot;display:flex;align-items:center;margin-bottom:8px;&quot;&gt;
&lt;span style=&quot;font-size:24px;margin-right:8px;&quot;&gt;🎨&lt;/span&gt;
&lt;span style=&quot;font-size:14px;font-weight:bold;color:#1a1a1a;&quot;&gt;🎨 UI Components&lt;/span&gt;
&lt;/div&gt;
&lt;hr style=&quot;border:none;border-top:1px solid #ccc;margin:8px 0;&quot;&gt;
&lt;div style=&quot;font-size:11px;line-height:1.6;color:#333;&quot;&gt;
• Button (variants: primary, secondary, danger)&lt;br/&gt;• Modal (confirmação, formulário)&lt;br/&gt;• DataTable (pagination, sorting, filters)&lt;br/&gt;• Breadcrumb (dynamic)&lt;br/&gt;• Dropdown (ActionDropdown)&lt;br/&gt;• Inputs (Text, Select, Date, Currency)&lt;br/&gt;• StatusBadge (success, warning, danger)&lt;br/&gt;• LoadingSpinner, Toast, Alert&lt;br/&gt;&lt;/div&gt;&lt;/div&gt;" style="rounded=1;whiteSpace=wrap;html=1;fillColor=#FFF9C4;strokeColor=#F9A825;strokeWidth=2;shadow=1;align=left;verticalAlign=top;spacingLeft=5;spacingTop=5;" vertex="1" parent="1">
          <mxGeometry x="1030" y="790" width="450" height="240" as="geometry"/>
        </mxCell>
        <mxCell id="components_contacts" value="&lt;div style=&quot;padding:10px;&quot;&gt;
&lt;div style=&quot;display:flex;align-items:center;margin-bottom:8px;&quot;&gt;
&lt;span style=&quot;font-size:24px;margin-right:8px;&quot;&gt;📞&lt;/span&gt;
&lt;span style=&quot;font-size:14px;font-weight:bold;color:#1a1a1a;&quot;&gt;📞 Contacts&lt;/span&gt;
&lt;/div&gt;
&lt;hr style=&quot;border:none;border-top:1px solid #ccc;margin:8px 0;&quot;&gt;
&lt;div style=&quot;font-size:11px;line-height:1.6;color:#333;&quot;&gt;
• AddressDisplayCard (readonly)&lt;br/&gt;• EmailDisplayCard (readonly)&lt;br/&gt;• PhoneDisplayCard (readonly)&lt;br/&gt;• AddressForm (editable)&lt;br/&gt;• EmailForm (editable)&lt;br/&gt;• PhoneForm (editable)&lt;br/&gt;• &lt;b&gt;Features:&lt;/b&gt; Multiple addresses, Multiple contacts&lt;br/&gt;&lt;/div&gt;&lt;/div&gt;" style="rounded=1;whiteSpace=wrap;html=1;fillColor=#FFEBEE;strokeColor=#E53935;strokeWidth=2;shadow=1;align=left;verticalAlign=top;spacingLeft=5;spacingTop=5;" vertex="1" parent="1">
          <mxGeometry x="1510" y="790" width="450" height="240" as="geometry"/>
        </mxCell>
        <mxCell id="components_dashboard" value="&lt;div style=&quot;padding:10px;&quot;&gt;
&lt;div style=&quot;display:flex;align-items:center;margin-bottom:8px;&quot;&gt;
&lt;span style=&quot;font-size:24px;margin-right:8px;&quot;&gt;📊&lt;/span&gt;
&lt;span style=&quot;font-size:14px;font-weight:bold;color:#1a1a1a;&quot;&gt;📊 Dashboard&lt;/span&gt;
&lt;/div&gt;
&lt;hr style=&quot;border:none;border-top:1px solid #ccc;margin:8px 0;&quot;&gt;
&lt;div style=&quot;font-size:11px;line-height:1.6;color:#333;&quot;&gt;
• MetricCard (KPI display)&lt;br/&gt;• ChartCard (Chart.js wrapper)&lt;br/&gt;• AlertCard (notifications)&lt;br/&gt;• TableCard (recent data)&lt;br/&gt;• ContractStatsCard&lt;br/&gt;• BillingStatsCard&lt;br/&gt;• &lt;b&gt;Charts:&lt;/b&gt; Line, Bar, Pie, Doughnut&lt;br/&gt;&lt;/div&gt;&lt;/div&gt;" style="rounded=1;whiteSpace=wrap;html=1;fillColor=#E0F2F1;strokeColor=#00897B;strokeWidth=2;shadow=1;align=left;verticalAlign=top;spacingLeft=5;spacingTop=5;" vertex="1" parent="1">
          <mxGeometry x="1990" y="790" width="450" height="240" as="geometry"/>
        </mxCell>
        <mxCell id="components_shared" value="&lt;div style=&quot;padding:10px;&quot;&gt;
&lt;div style=&quot;display:flex;align-items:center;margin-bottom:8px;&quot;&gt;
&lt;span style=&quot;font-size:24px;margin-right:8px;&quot;&gt;🔄&lt;/span&gt;
&lt;span style=&quot;font-size:14px;font-weight:bold;color:#1a1a1a;&quot;&gt;🔄 Shared&lt;/span&gt;
&lt;/div&gt;
&lt;hr style=&quot;border:none;border-top:1px solid #ccc;margin:8px 0;&quot;&gt;
&lt;div style=&quot;font-size:11px;line-height:1.6;color:#333;&quot;&gt;
• ErrorBoundary (error handling)&lt;br/&gt;• ProtectedRoute (auth guard)&lt;br/&gt;• NotFound (404 page)&lt;br/&gt;• Unauthorized (403 page)&lt;br/&gt;• LoadingPage (suspense fallback)&lt;br/&gt;• EmptyState (no data)&lt;br/&gt;• &lt;b&gt;Features:&lt;/b&gt; Lazy loading, Code splitting&lt;br/&gt;&lt;/div&gt;&lt;/div&gt;" style="rounded=1;whiteSpace=wrap;html=1;fillColor=#FFF8E1;strokeColor=#FFA000;strokeWidth=2;shadow=1;align=left;verticalAlign=top;spacingLeft=5;spacingTop=5;" vertex="1" parent="1">
          <mxGeometry x="2470" y="790" width="450" height="240" as="geometry"/>
        </mxCell>
        <mxCell id="section_logic" value="🔌 SERVICES, HOOKS E CONTEXTS" style="rounded=1;whiteSpace=wrap;html=1;fillColor=#FCE4EC;strokeColor=#666666;strokeWidth=2;fontSize=14;fontStyle=1;fontColor=#1a1a1a;align=center;verticalAlign=middle;shadow=1;" vertex="1" parent="1">
          <mxGeometry x="50" y="1070" width="3100" height="50" as="geometry"/>
        </mxCell>
        <mxCell id="services" value="&lt;div style=&quot;padding:10px;&quot;&gt;
&lt;div style=&quot;display:flex;align-items:center;margin-bottom:8px;&quot;&gt;
&lt;span style=&quot;font-size:24px;margin-right:8px;&quot;&gt;🔌&lt;/span&gt;
&lt;span style=&quot;font-size:14px;font-weight:bold;color:#1a1a1a;&quot;&gt;🔌 Services (API Clients)&lt;/span&gt;
&lt;/div&gt;
&lt;hr style=&quot;border:none;border-top:1px solid #ccc;margin:8px 0;&quot;&gt;
&lt;div style=&quot;font-size:11px;line-height:1.6;color:#333;&quot;&gt;
• &lt;b&gt;api.js:&lt;/b&gt; Axios instance (base URL, interceptors)&lt;br/&gt;• &lt;b&gt;companiesService:&lt;/b&gt; CRUD + endpoints específicos&lt;br/&gt;• &lt;b&gt;establishmentsService:&lt;/b&gt; CRUD + filtros&lt;br/&gt;• &lt;b&gt;clientsService:&lt;/b&gt; CRUD + contacts&lt;br/&gt;• &lt;b&gt;contractsService:&lt;/b&gt; CRUD + lives + dashboard&lt;br/&gt;• &lt;b&gt;billingService:&lt;/b&gt; Invoices + receipts&lt;br/&gt;• &lt;b&gt;b2bBillingService:&lt;/b&gt; B2B billing&lt;br/&gt;• &lt;b&gt;medicalAuthorizationsService:&lt;/b&gt; Approvals&lt;br/&gt;• &lt;b&gt;httpCache:&lt;/b&gt; Cache layer (Redis)&lt;br/&gt;• &lt;b&gt;Features:&lt;/b&gt; Token refresh, Error handling, Retry logic&lt;br/&gt;&lt;/div&gt;&lt;/div&gt;" style="rounded=1;whiteSpace=wrap;html=1;fillColor=#E1F5FE;strokeColor=#0277BD;strokeWidth=2;shadow=1;align=left;verticalAlign=top;spacingLeft=5;spacingTop=5;" vertex="1" parent="1">
          <mxGeometry x="70" y="1140" width="950" height="280" as="geometry"/>
        </mxCell>
        <mxCell id="hooks" value="&lt;div style=&quot;padding:10px;&quot;&gt;
&lt;div style=&quot;display:flex;align-items:center;margin-bottom:8px;&quot;&gt;
&lt;span style=&quot;font-size:24px;margin-right:8px;&quot;&gt;🪝&lt;/span&gt;
&lt;span style=&quot;font-size:14px;font-weight:bold;color:#1a1a1a;&quot;&gt;🪝 Custom Hooks&lt;/span&gt;
&lt;/div&gt;
&lt;hr style=&quot;border:none;border-top:1px solid #ccc;margin:8px 0;&quot;&gt;
&lt;div style=&quot;font-size:11px;line-height:1.6;color:#333;&quot;&gt;
• &lt;b&gt;useCompanyForm:&lt;/b&gt; Form state + validation&lt;br/&gt;• &lt;b&gt;useEstablishmentForm:&lt;/b&gt; Form state + validation&lt;br/&gt;• &lt;b&gt;useClientForm:&lt;/b&gt; Form state + validation&lt;br/&gt;• &lt;b&gt;useBreadcrumbs:&lt;/b&gt; Dynamic breadcrumb&lt;br/&gt;• &lt;b&gt;useDataTable:&lt;/b&gt; Pagination + sorting + filters&lt;br/&gt;• &lt;b&gt;useCompaniesDataTable:&lt;/b&gt; Specialized table&lt;br/&gt;• &lt;b&gt;useBillingDashboard:&lt;/b&gt; Dashboard data&lt;br/&gt;• &lt;b&gt;useCompanyBillingData:&lt;/b&gt; Billing metrics&lt;br/&gt;• &lt;b&gt;useInvoices:&lt;/b&gt; Invoice management&lt;br/&gt;• &lt;b&gt;useSubscriptionPlans:&lt;/b&gt; Plans management&lt;br/&gt;• &lt;b&gt;Features:&lt;/b&gt; Debounce, Memoization, Optimistic updates&lt;br/&gt;&lt;/div&gt;&lt;/div&gt;" style="rounded=1;whiteSpace=wrap;html=1;fillColor=#F3E5F5;strokeColor=#6A1B9A;strokeWidth=2;shadow=1;align=left;verticalAlign=top;spacingLeft=5;spacingTop=5;" vertex="1" parent="1">
          <mxGeometry x="1050" y="1140" width="950" height="280" as="geometry"/>
        </mxCell>
        <mxCell id="contexts" value="&lt;div style=&quot;padding:10px;&quot;&gt;
&lt;div style=&quot;display:flex;align-items:center;margin-bottom:8px;&quot;&gt;
&lt;span style=&quot;font-size:24px;margin-right:8px;&quot;&gt;🌐&lt;/span&gt;
&lt;span style=&quot;font-size:14px;font-weight:bold;color:#1a1a1a;&quot;&gt;🌐 Contexts (Global State)&lt;/span&gt;
&lt;/div&gt;
&lt;hr style=&quot;border:none;border-top:1px solid #ccc;margin:8px 0;&quot;&gt;
&lt;div style=&quot;font-size:11px;line-height:1.6;color:#333;&quot;&gt;
• &lt;b&gt;AuthContext:&lt;/b&gt;&lt;br/&gt;•   • user: User object (JWT payload)&lt;br/&gt;•   • login(email, password): JWT authentication&lt;br/&gt;•   • logout(): Clear session + redirect&lt;br/&gt;•   • isAuthenticated: Boolean&lt;br/&gt;•   • permissions: Array (cached)&lt;br/&gt;• &lt;br/&gt;• &lt;b&gt;ThemeContext:&lt;/b&gt;&lt;br/&gt;•   • theme: &quot;light&quot; | &quot;dark&quot;&lt;br/&gt;•   • toggleTheme(): Switch theme&lt;br/&gt;•   • Persisted in localStorage&lt;br/&gt;• &lt;br/&gt;• &lt;b&gt;Features:&lt;/b&gt; React Context API, No external state management&lt;br/&gt;&lt;/div&gt;&lt;/div&gt;" style="rounded=1;whiteSpace=wrap;html=1;fillColor=#FFEBEE;strokeColor=#C62828;strokeWidth=2;shadow=1;align=left;verticalAlign=top;spacingLeft=5;spacingTop=5;" vertex="1" parent="1">
          <mxGeometry x="2030" y="1140" width="950" height="280" as="geometry"/>
        </mxCell>
        <mxCell id="footer_stats" value="&lt;table style=&quot;width:100%;font-size:11px;border-collapse:collapse;&quot;&gt;
&lt;tr style=&quot;background:#1565C0;color:white;font-weight:bold;&quot;&gt;
&lt;th style=&quot;padding:8px;border:1px solid #ddd;&quot;&gt;Categoria&lt;/th&gt;
&lt;th style=&quot;padding:8px;border:1px solid #ddd;&quot;&gt;Quantidade&lt;/th&gt;
&lt;th style=&quot;padding:8px;border:1px solid #ddd;&quot;&gt;Detalhes&lt;/th&gt;
&lt;/tr&gt;
&lt;tr&gt;
&lt;td style=&quot;padding:8px;border:1px solid #ddd;&quot;&gt;📄 Páginas&lt;/td&gt;
&lt;td style=&quot;padding:8px;border:1px solid #ddd;text-align:center;&quot;&gt;&lt;b&gt;27&lt;/b&gt;&lt;/td&gt;
&lt;td style=&quot;padding:8px;border:1px solid #ddd;&quot;&gt;Dashboard, Cadastros, Home Care, Financeiro&lt;/td&gt;
&lt;/tr&gt;
&lt;tr style=&quot;background:#f9f9f9;&quot;&gt;
&lt;td style=&quot;padding:8px;border:1px solid #ddd;&quot;&gt;🧩 Componentes&lt;/td&gt;
&lt;td style=&quot;padding:8px;border:1px solid #ddd;text-align:center;&quot;&gt;&lt;b&gt;50+&lt;/b&gt;&lt;/td&gt;
&lt;td style=&quot;padding:8px;border:1px solid #ddd;&quot;&gt;Forms, Views, UI Components, Layout&lt;/td&gt;
&lt;/tr&gt;
&lt;tr&gt;
&lt;td style=&quot;padding:8px;border:1px solid #ddd;&quot;&gt;🔌 Services&lt;/td&gt;
&lt;td style=&quot;padding:8px;border:1px solid #ddd;text-align:center;&quot;&gt;&lt;b&gt;15+&lt;/b&gt;&lt;/td&gt;
&lt;td style=&quot;padding:8px;border:1px solid #ddd;&quot;&gt;API Clients (Companies, Contracts, Billing, etc.)&lt;/td&gt;
&lt;/tr&gt;
&lt;tr style=&quot;background:#f9f9f9;&quot;&gt;
&lt;td style=&quot;padding:8px;border:1px solid #ddd;&quot;&gt;🪝 Hooks&lt;/td&gt;
&lt;td style=&quot;padding:8px;border:1px solid #ddd;text-align:center;&quot;&gt;&lt;b&gt;10+&lt;/b&gt;&lt;/td&gt;
&lt;td style=&quot;padding:8px;border:1px solid #ddd;&quot;&gt;useCompanyForm, useDataTable, useBreadcrumbs, etc.&lt;/td&gt;
&lt;/tr&gt;
&lt;tr&gt;
&lt;td style=&quot;padding:8px;border:1px solid #ddd;&quot;&gt;🌐 Contexts&lt;/td&gt;
&lt;td style=&quot;padding:8px;border:1px solid #ddd;text-align:center;&quot;&gt;&lt;b&gt;2&lt;/b&gt;&lt;/td&gt;
&lt;td style=&quot;padding:8px;border:1px solid #ddd;&quot;&gt;AuthContext (JWT), ThemeContext (Dark Mode)&lt;/td&gt;
&lt;/tr&gt;
&lt;tr style=&quot;background:#f9f9f9;&quot;&gt;
&lt;td style=&quot;padding:8px;border:1px solid #ddd;&quot;&gt;🛣️ Navegação&lt;/td&gt;
&lt;td style=&quot;padding:8px;border:1px solid #ddd;text-align:center;&quot;&gt;&lt;b&gt;React Router v6&lt;/b&gt;&lt;/td&gt;
&lt;td style=&quot;padding:8px;border:1px solid #ddd;&quot;&gt;Protected Routes, Lazy Loading, Redirect After Login&lt;/td&gt;
&lt;/tr&gt;
&lt;/table&gt;" style="rounded=1;whiteSpace=wrap;html=1;fillColor=#E3F2FD;strokeColor=#1565C0;strokeWidth=2;align=left;verticalAlign=top;shadow=1;" vertex="1" parent="1">
          <mxGeometry x="50" y="1460" width="3100" height="230" as="geometry"/>
        </mxCell>
        <mxCell id="footer_note" value="🎨 Gerado automaticamente por Claude Code | Pro Team Care © 2025 | Diagrama v2 Profissional" style="text;html=1;strokeColor=#666666;fillColor=#f5f5f5;align=center;verticalAlign=middle;whiteSpace=wrap;rounded=1;fontSize=13;fontStyle=1;shadow=1;" vertex="1" parent="1">
          <mxGeometry x="50" y="1720" width="3100" height="40" as="geometry"/>
        </mxCell>
      </root>
    </mxGraphModel>
  </diagram>
</mxfile>
